<svg version="1.1" xmlns="http://www.w3.org/2000/svg" viewBox="-297.9839994430542 -2567.680120849609 3716.096044921875 2885.1201110839843"><desc>Created with Snap</desc><defs></defs><g><g transform="matrix(45.312,0,0,45.312,836.9751,-2260.4801)"><g><path d="M16 30c-8.271 0-15-6.729-15-15s6.729-15 15-15 15 6.729 15 15-6.729 15-15 15zm0-28c-7.168 0-13 5.832-13 13s5.832 13 13 13 13-5.832 13-13-5.832-13-13-13zM.999 30c-.199 0-.4-.06-.576-.183-.451-.319-.559-.942-.24-1.395l12-17c.319-.451.941-.559 1.394-.24.451.318.559.942.24 1.394l-12 17c-.195.277-.504.424-.818.424zM31.001 30c-.314 0-.623-.147-.818-.423l-12-17c-.318-.451-.211-1.075.24-1.394.453-.318 1.075-.211 1.395.24l12 17c.318.452.211 1.075-.24 1.395-.177.122-.378.182-.577.182zM13 13.6c-.882 0-1.6-.718-1.6-1.6s.718-1.6 1.6-1.6 1.6.718 1.6 1.6-.718 1.6-1.6 1.6zm0-2c-.221 0-.4.179-.4.4s.179.4.4.4.4-.179.4-.4-.179-.4-.4-.4zM19 13.6c-.882 0-1.6-.718-1.6-1.6s.718-1.6 1.6-1.6 1.6.718 1.6 1.6-.718 1.6-1.6 1.6zm0-2c-.221 0-.4.179-.4.4s.18.4.4.4.4-.179.4-.4-.179-.4-.4-.4zM8.055 4.384c-.35 0-.693-.169-.875-.485-.563-.975-.227-2.226.748-2.789.47-.273 1.021-.347 1.548-.204.527.141.967.479 1.24.951.276.478.112 1.09-.366 1.366s-1.09.112-1.366-.366c.276.479.076 1.112-.402 1.388-.164.093-.346.139-.527.139zM22.973 29.204c-.707 0-1.395-.366-1.772-1.021-.276-.479-.112-1.09.366-1.366.477-.276 1.089-.111 1.366.366-.276-.479-.075-1.11.403-1.387.476-.273 1.125-.134 1.401.347.562.975.227 2.226-.748 2.788-.32.185-.671.273-1.016.273zM1.938 17.062c-1.125 0-2.042-.916-2.042-2.042s.916-2.042 2.042-2.042c.552 0 1 .448 1 1s-.448 1-1 1c.552 0 1 .489 1 1.042s-.448 1.042-1 1.042zM29.979 17.062c-.553 0-1-.448-1-1s.447-1 1-1c-.553 0-1-.489-1-1.042 0-.552.447-1.042 1-1.042 1.125 0 2.041.916 2.041 2.042.001 1.126-.916 2.042-2.041 2.042zM8.945 29.206c-.354 0-.703-.093-1.017-.274-.976-.563-1.311-1.814-.748-2.789.276-.479.887-.643 1.366-.366.479.276.642.888.366 1.366.275-.479.922-.622 1.401-.347.479.276.679.908.403 1.387-.272.474-.713.812-1.24.953-.176.047-.354.07-.531.07zM23.87 4.399c-.169 0-.341-.043-.498-.133-.478-.276-.643-.887-.367-1.366-.277.478-.925.621-1.403.344-.478-.276-.678-.909-.4-1.387.563-.976 1.813-1.31 2.789-.746.974.561 1.31 1.812.747 2.788-.185.321-.522.5-.868.5z" fill="#0f4c5c" style=""></path></g><desc>Created with Snap</desc><defs></defs></g><g><g transform="matrix(1.024,0,0,-1.024,0,0)"><path d="M396 46Q414 46 444 87Q474 129 503 194Q533 260 539 260Q546 260 546 252Q546 224 517 163Q438 -5 383 -5Q337 -5 317 11Q308 20 308 201L144 189Q125 137 110 85Q95 33 90 21Q79 -5 37 -5Q9 -5 9 19Q9 43 47 89Q54 98 93 186Q79 185 66 185Q31 185 31 215Q31 242 59 242Q61 242 116 237Q131 272 148 306Q279 580 328 580Q365 580 379 237L388 237Q395 237 395 227Q395 217 380 210Q386 46 396 46ZM159 232Q276 232 308 233Q307 249 306 289Q305 329 304 358Q303 388 302 420Q298 489 290 489Q279 489 245 424Q211 359 192 314Q166 249 159 232ZM649 306L651 321Q651 339 630 339Q610 339 591 312Q572 286 572 269Q572 252 574 242Q576 232 578 225Q581 219 587 210Q593 201 596 197L607 183Q614 173 617 170Q669 213 741 266Q745 269 750 269Q760 269 760 258Q760 247 751 241Q687 200 630 152Q652 120 652 82Q652 44 623 17Q594 -10 549 -10Q504 -10 504 33Q504 64 570 128Q565 134 552 147Q539 161 532 169Q526 177 517 190Q501 215 501 244Q501 303 539 339Q577 376 620 376Q647 376 662 361Q677 347 677 332Q677 298 661 298Q649 298 649 306ZM585 109Q545 69 545 44Q545 20 570 20Q585 20 595 32Q617 62 585 109ZM857 306L859 321Q859 339 838 339Q818 339 799 312Q780 286 780 269Q780 252 782 242Q784 232 786 225Q789 219 795 210Q801 201 804 197L815 183Q822 173 825 170Q877 213 949 266Q953 269 958 269Q968 269 968 258Q968 247 959 241Q895 200 838 152Q860 120 860 82Q860 44 831 17Q802 -10 757 -10Q712 -10 712 33Q712 64 778 128Q773 134 760 147Q747 161 740 169Q734 177 725 190Q709 215 709 244Q709 303 747 339Q785 376 828 376Q855 376 870 361Q885 347 885 332Q885 298 869 298Q857 298 857 306ZM793 109Q753 69 753 44Q753 20 778 20Q793 20 803 32Q825 62 793 109ZM1230 217Q1270 230 1285 239Q1301 249 1309 254L1321 261Q1326 264 1329 264Q1337 264 1337 255Q1337 246 1306 223Q1275 201 1229 183Q1222 99 1176 47Q1130 -5 1045 -5Q983 -5 950 44Q917 94 917 160Q917 227 956 286Q996 345 1058 345Q1086 365 1124 365Q1163 365 1196 324Q1229 283 1230 217ZM1165 166L1129 164Q1083 164 1051 191Q1019 219 1019 252Q1019 285 1030 309Q987 275 987 175Q987 127 1007 83Q1027 40 1070 40Q1113 40 1137 76Q1161 113 1165 166ZM1103 332Q1087 332 1078 317Q1069 303 1069 286Q1069 249 1094 226Q1120 203 1154 203L1166 203Q1164 252 1149 292Q1135 332 1103 332ZM1359 54L1360 23Q1360 -5 1344 -5Q1320 -5 1298 1Q1276 8 1276 19Q1276 31 1281 98Q1287 166 1287 200L1287 259Q1287 307 1297 317Q1307 327 1332 346Q1358 365 1369 365Q1381 365 1384 361Q1387 357 1387 346Q1387 293 1367 246Q1362 189 1362 167Q1366 173 1404 235Q1442 297 1468 326Q1495 355 1516 355Q1537 355 1553 341Q1570 327 1570 306Q1570 262 1560 176Q1551 91 1551 68Q1551 46 1557 46Q1574 47 1604 88Q1634 130 1663 195Q1693 260 1699 260Q1706 260 1706 252Q1706 224 1677 163Q1598 -5 1544 -5Q1505 -5 1485 11Q1478 18 1478 47Q1478 77 1483 143Q1489 210 1489 243Q1489 276 1477 276Q1466 276 1417 207Q1368 139 1365 120Q1359 85 1359 54ZM1933 -5Q1894 -5 1874 11Q1867 18 1867 46Q1867 75 1869 123Q1843 58 1817 26Q1792 -5 1752 -5Q1712 -5 1682 32Q1652 70 1652 150Q1652 231 1697 293Q1743 355 1817 355Q1849 355 1889 313Q1897 324 1917 339Q1938 355 1952 355Q1967 355 1967 317Q1967 307 1961 278Q1956 249 1949 236Q1940 213 1940 73Q1940 46 1946 46Q1963 47 1993 88Q2023 130 2052 195Q2082 260 2088 260Q2095 260 2095 252Q2095 224 2066 163Q1987 -5 1933 -5ZM1811 315Q1783 315 1751 273Q1720 232 1720 176Q1720 120 1736 84Q1753 48 1780 48Q1813 48 1877 213Q1878 221 1879 240Q1881 260 1882 270Q1873 286 1850 300Q1828 315 1811 315ZM2113 54L2114 23Q2114 -5 2098 -5Q2074 -5 2052 1Q2030 8 2030 19Q2030 31 2035 98Q2041 166 2041 200L2041 259Q2041 307 2051 317Q2061 327 2086 346Q2112 365 2123 365Q2135 365 2138 361Q2141 357 2141 346Q2141 293 2121 246Q2116 189 2116 167Q2120 173 2158 235Q2196 297 2222 326Q2249 355 2270 355Q2291 355 2307 341Q2324 327 2324 306Q2324 262 2314 176Q2305 91 2305 68Q2305 46 2311 46Q2328 47 2358 88Q2388 130 2417 195Q2447 260 2453 260Q2460 260 2460 252Q2460 224 2431 163Q2352 -5 2298 -5Q2259 -5 2239 11Q2232 18 2232 47Q2232 77 2237 143Q2243 210 2243 243Q2243 276 2231 276Q2220 276 2171 207Q2122 139 2119 120Q2113 85 2113 54ZM2585 243L2593 294Q2593 305 2586 314Q2579 323 2568 323Q2531 323 2504 267Q2477 212 2477 161Q2477 110 2498 78Q2519 47 2549 47Q2580 47 2604 61Q2628 75 2648 101Q2690 156 2720 226Q2728 244 2732 252Q2737 260 2742 260Q2748 260 2748 252Q2748 219 2725 173Q2702 127 2686 102Q2671 78 2647 51Q2597 -5 2522 -5Q2465 -5 2435 35Q2406 76 2406 122Q2406 236 2455 295Q2505 355 2581 355Q2613 355 2631 338Q2650 322 2650 301Q2650 262 2636 243Q2622 224 2602 224Q2585 224 2585 243ZM2814 -5Q2758 -5 2725 37Q2692 80 2692 134Q2692 243 2738 299Q2784 355 2857 355Q2891 355 2913 336Q2935 318 2935 286Q2935 226 2884 185Q2834 145 2761 143Q2765 104 2787 75Q2810 47 2840 47Q2870 47 2894 61Q2918 75 2938 101Q2980 156 3010 226Q3018 244 3022 252Q3027 260 3032 260Q3038 260 3038 252Q3038 202 2977 102Q2911 -5 2814 -5ZM2761 167Q2820 177 2847 205Q2875 233 2875 278Q2875 323 2846 323Q2811 323 2787 274Q2763 226 2761 167Z" fill="#5f0f40" style=""></path></g></g></g></svg>